PathFileType	4	(X/Y/Z)	Patient4_TMGait_0pt5_02_right_31.trc.trc
DataRate	CameraRate	NumFrames	NumMarkers	Units	OrigDataRate	OrigDataStartFrame	OrigNumFrames
75.268817204301	75.268817204301	4	33	mm	75.268817204301	71	       141
Frame#	Time	Sacral			L.Shoulder			Chest			R.Shoulder			Neck			R.ASIS			L.ASIS			R.Thigh.Superior			R.Thigh.Lateral			R.Thigh.Inferior			R.Patella			L.Thigh.Superior			L.Thigh.Lateral			L.Thigh.Inferior			L.Patella			L.Shank.Superior			L.Shank.Lateral			L.Shank.Inferior			R.Shank.Superior			R.Shank.Lateral			R.Shank.Inferior			R.Heel			R.Midfoot.Superior			R.Midfoot.Lateral			R.Toe			L.Heel			L.Midfoot.Lateral			L.Midfoot.Superior			L.Toe			L.Elbow			L.Wrist			R.Elbow			R.Wrist			
		X1	Y1	Z1	X2	Y2	Z2	X3	Y3	Z3	X4	Y4	Z4	X5	Y5	Z5	X6	Y6	Z6	X7	Y7	Z7	X8	Y8	Z8	X9	Y9	Z9	X10	Y10	Z10	X11	Y11	Z11	X12	Y12	Z12	X13	Y13	Z13	X14	Y14	Z14	X15	Y15	Z15	X16	Y16	Z16	X17	Y17	Z17	X18	Y18	Z18	X19	Y19	Z19	X20	Y20	Z20	X21	Y21	Z21	X22	Y22	Z22	X23	Y23	Z23	X24	Y24	Z24	X25	Y25	Z25	X26	Y26	Z26	X27	Y27	Z27	X28	Y28	Z28	X29	Y29	Z29	X30	Y30	Z30	X31	Y31	Z31	X32	Y32	Z32	X33	Y33	Z33	

71	41.420000000000	689.431083448919	1010.184881828890	517.532437589683	853.811930089670	1419.560195572237	301.804512293928	978.791182088525	1350.700571504486	446.155401120585	929.340565164715	1436.869791197035	627.634016983803	880.215309313426	1485.029101359865	447.264608455478	921.592570122944	928.428072897436	606.168167866289	881.061241084827	953.400622702765	334.563247578234	918.639764721969	717.159200238114	575.358254980377	818.851573861439	623.263287897257	639.825673294412	874.527846844234	558.936252722540	554.454880420660	854.796759176298	472.176952972588	557.518337735300	953.931899805297	772.488220599536	370.852233504642	905.867302643530	643.530591475860	295.834584259860	1002.552689736797	582.843164083584	364.613263440407	1029.699292318048	519.462535479637	363.619972146689	1017.161676211416	447.160775300345	352.551425139340	960.388483073733	314.196667239089	298.358230651092	1047.323006886188	219.542949730451	361.256628814452	813.574727513411	389.449049949586	564.986097274679	729.069051864082	297.757609385864	627.914576887406	748.990250770418	199.166262825501	561.721227982807	591.411890933441	46.313867602895	533.179212917982	763.203782800997	96.088406015210	568.757720427135	673.972794796602	37.423449244970	608.076993549021	882.272640521138	39.220148660657	599.516685882462	969.680175020841	36.064445521861	393.865701804241	1049.214435912518	45.507224810177	319.767910742641	1112.943545855816	126.118566160621	346.057206235924	1249.953121432614	104.821633526066	331.302659017615	725.729151216476	1077.221967617315	234.478403501205	722.301946859654	816.943943973698	249.349623645842	1057.017419753033	1121.946680522595	737.024033590835	1260.526948120425	1171.998747278549	601.056111318842	
72	41.433285714286	691.309825331335	1008.379340009658	515.696781885780	854.494243917430	1417.973228574781	299.458335365360	979.309231430831	1349.828155214926	444.274325617080	928.808768151549	1435.896114625869	625.500302645497	880.159615390730	1483.734613317536	444.982805108618	923.405755165010	927.671111011846	605.500695099303	883.457465325780	951.188223597989	333.710418359255	918.926218042149	715.859355317389	575.425490347944	817.636419485492	622.605623517090	639.416682179057	873.061456749803	557.665863330320	554.564387517455	852.314803175175	470.846946726238	557.350107206021	955.887223528852	769.454613668303	369.499062811996	905.013501411037	640.346654362562	295.879278579402	1002.671212235401	579.849577303727	363.184008455681	1028.579227454995	516.125051267196	362.936350762034	1016.166176260680	443.929585488572	352.236733669376	958.341926376777	311.002826049840	299.830328427042	1045.756539119753	216.573287690226	362.204675983155	810.231242911792	388.593989377531	564.794306773340	724.714960714246	297.796002594221	627.826475254572	743.576406036015	198.936946917211	561.751269476190	584.780192983723	46.963755713381	533.363960491611	756.728750181554	96.203060915570	568.916902040614	667.372275453119	37.705243208710	608.184500443841	875.654268554231	38.966162661431	599.604518619476	966.811583782593	35.707880408107	396.458637656768	1045.525587557167	43.602203177291	321.375756445931	1111.279890124029	122.076616459426	347.327875957459	1247.379401724969	97.461949931274	330.967149883408	727.575824979150	1075.327433995182	231.807082127655	726.201109177053	814.960222853877	246.825892631922	1059.047694979677	1120.701793231738	731.860453240829	1262.666452021424	1169.209857196857	594.947265827066	
73	41.446571428571	693.313296128614	1006.564640334632	513.694448942561	855.254990081658	1416.352610568026	296.894834393410	979.881911602769	1349.027421848737	442.262955862852	928.172829069806	1434.999370071206	623.210884804696	880.099354774866	1482.471115284999	442.467395470093	925.337029242188	926.943413453661	604.755151931817	886.078289836992	949.057935098568	332.787836006834	919.505624841201	714.594842882923	575.369798084794	816.776442130639	621.954545744942	638.858558039428	872.028495899571	556.409874576245	554.525660197864	850.327609540123	469.394195491473	557.057329363742	958.356829284829	766.773598092104	368.169722873752	904.940781908866	637.528138307641	295.908688310604	1003.616313717936	577.335919286956	361.813229405674	1028.156602887610	512.996212633521	362.313979792142	1015.675685163295	440.771977861366	351.946630334907	956.347834173097	308.178324908914	300.985516598866	1043.567814890166	213.501636450792	363.010010652636	807.232487649573	387.703122465195	564.500222857330	720.608201371767	297.910261475959	627.669597088112	738.313596553203	198.755923294223	561.748781477184	578.160231780546	47.813719485255	533.583548915214	750.327856149187	96.358860428097	569.087370407321	660.794004579888	38.084730754618	608.318910312251	869.064467641306	38.709116595175	599.694585886538	962.162284860812	35.690264849035	398.592725587326	1040.224622012722	41.712755384703	322.637692842550	1108.439076738712	117.642776959577	348.496290191351	1243.521729325400	88.924256082851	330.708311841867	729.951758304528	1073.236746900497	228.782999316201	730.880801239089	812.793171985167	243.838646204057	1060.145663908889	1119.263764346327	726.991932541006	1264.340872516033	1165.115211478853	589.370498680836	
74	41.459857142857	695.381767911227	1004.832574905216	511.559201304649	856.084017108325	1414.753396836812	294.141369122845	980.519652931892	1348.325714346373	440.116774219552	927.525661002388	1434.234172164694	620.767731191798	880.082288419241	1481.294983538875	439.731514957980	927.327786134615	926.280302310770	603.902472055634	888.847405545011	947.120700428737	331.770468537246	920.372795950406	713.415098843350	575.155757113490	816.341122031443	621.318966984184	638.128804461258	871.520276235993	555.201827672022	554.303588211447	848.973015811812	467.814894200962	556.650625051716	961.252950292129	764.569743297067	366.933620639654	905.744329990809	635.231337355971	295.850244063849	1005.353199100746	575.393761329841	360.564123456696	1028.449362898416	510.239101814166	361.790752608560	1015.768321610300	437.861296965293	351.687498259161	954.702653205924	305.837091119100	301.694529517620	1041.064356616852	210.521097848461	363.646781099596	804.677548575663	386.781934676068	564.098739101399	716.825703055465	298.139297512647	627.431787987662	733.261025235258	198.657068552785	561.714800251613	571.571146964357	48.948053775533	533.838101582636	744.041026758175	96.565531026278	569.273558995582	654.251506796627	38.605191034620	608.478952108132	862.512933364726	38.455359564754	599.783107409388	956.318180227241	35.913124709791	400.175879554574	1033.934499186941	39.948470821997	323.523364846388	1104.775616892767	113.173188320363	349.532806614241	1238.816940318165	80.011219107507	330.611097601337	732.868354679649	1070.993220329558	225.457053080073	736.301346324528	810.494431209297	240.410325112935	1060.342567113816	1117.673102271584	722.501328568066	1265.520153486393	1159.700288666340	584.385766039759	
